<svg width="157" height="153" viewBox="0 0 157 153" fill="none" xmlns="http://www.w3.org/2000/svg">
<path d="M78.5 0L157 18V117L79 152.5L0 117V18.5L78.5 0Z" fill="#FAFF00"/>
<path fill-rule="evenodd" clip-rule="evenodd" d="M76.41 150.7L76.06 150.55C74.42 149.81 64.27 145.31 53.51 140.54C37.451 133.43 16.347 123.92 1.951 117.3L0.5 116.63V21.1L2.045 21.58C4.316 22.28 8.16 23.48 10.586 24.25L13.618 25.2L13.829 47.6C13.952 60.71 14.053 78.28 14.053 86.65V101.87C14.053 102.67 14.53 103.4 15.266 103.71L76.65 129.98L76.54 141.06C76.5 144.93 76.45 148.41 76.41 150.7ZM156.23 19.94C156.31 24.93 156.5 39.5 156.5 67.55V116.5L155.4 117C154.15 117.56 147.27 120.72 140.11 124.01C132.97 127.29 118.08 134.08 107.04 139.1C95.99 144.12 85.16 149.04 82.97 150.04C82.51 150.25 82.04 150.46 81.59 150.66C81.55 148.3 81.51 144.7 81.51 141.09V129.75L82.34 129.34C84.91 128.08 135.86 104.58 136.84 104.21L137.61 103.92C138.38 103.62 138.9 102.88 138.9 102.05V25.27C140.06 24.93 144.45 23.58 149.14 22.12C151.92 21.25 154.48 20.46 156.23 19.94ZM28.343 30.12C31.892 31.14 67.07 41.71 74.37 43.96L76.66 44.66L76.61 59.52C76.58 68.51 76.54 85.25 76.53 96.72C76.52 106.02 76.42 111.69 76.36 114.44C72.14 112.67 62.98 108.87 52.57 104.58C41.153 99.88 31.378 95.8 28.152 94.4C28.083 90.37 28.059 77.04 28.1 61.41C28.148 43 28.197 34.32 28.33 30.45L28.343 30.12ZM124.86 29.79C124.95 33.76 125.11 43.66 125.11 61.62V94.86L122.83 95.89C119.58 97.35 101.49 105.36 85.67 112.32C84.14 113 82.6 113.66 81.38 114.17C81.38 108.49 81.4 95.3 81.43 80.05L81.52 44.48L96.95 39.27C106.19 36.15 116.71 32.57 120.34 31.31C121.92 30.76 123.59 30.21 124.86 29.79ZM78.55 15.32C79.19 15.47 82.24 16.17 84.94 16.89C104.08 22.02 114.61 24.84 120.09 26.32C117.85 27.09 114.77 28.14 110.69 29.48L86.65 37.41L78.97 39.94L68.6 36.88C62.57 35.1 51.18 31.73 43.29 29.39C39.86 28.38 36.602 27.42 33.948 26.65C38.748 25.39 46.65 23.34 58.74 20.28C68.77 17.74 77.3 15.59 78.55 15.32ZM78.54 0.5C81.17 1.09 91.84 3.57 114.34 8.79C128.82 12.16 144.1 15.67 148.28 16.6L149.77 16.94C147.95 17.52 145.69 18.22 143.01 19.04L136.91 20.89L122.99 17.32C115.04 15.29 101.91 11.92 93.82 9.84L79.12 6.07C78.8024 5.9867 78.4692 5.98327 78.15 6.06L51.18 12.5C36.325 16.05 22.275 19.43 19.953 20.01L16.28 20.94L7.945 18.34C7.156 18.09 6.408 17.85 5.711 17.62C13.052 15.87 27.971 12.39 54.31 6.25C66.28 3.46 76.35 1.08 78.3 0.57C78.38 0.55 78.47 0.52 78.54 0.5Z" fill="black"/>
</svg>
